<?xml version="1.0" encoding="UTF-8"?><svg id="b" xmlns="http://www.w3.org/2000/svg" viewBox="0 0 302.94 269.71"><defs><style>.d{fill:#fff;}</style></defs><g id="c"><polygon class="d" points="0 195.48 0 74.24 151.47 0 302.94 74.24 302.94 195.48 151.47 269.71 0 195.48"/><g><polygon points="151.47 152.86 293.2 81.99 208.16 39.47 123.12 81.99 151.47 96.16 208.16 67.82 236.51 81.99 151.47 124.51 66.43 81.99 179.82 25.3 151.47 11.12 9.74 81.99 151.47 152.86"/><polygon points="293.2 92.34 151.47 163.2 9.74 92.34 9.74 120.68 151.47 191.55 293.2 120.68 293.2 92.34"/><polygon points="264.85 201.9 293.2 187.72 293.2 131.03 151.47 201.9 9.74 131.03 9.74 187.72 38.09 201.9 38.09 173.55 151.47 230.24 264.85 173.55 264.85 201.9"/></g></g></svg>