<?xml version="1.0" encoding="UTF-8"?><svg id="b" xmlns="http://www.w3.org/2000/svg" viewBox="0 0 302.94 269.71"><g id="c"><path d="M151.47,0L0,74.24v121.24l151.47,74.24,151.47-74.24V74.24L151.47,0Zm0,11.12l28.35,14.17-113.38,56.69,85.03,42.52,85.04-42.52-28.35-14.17-56.69,28.35-28.34-14.17,85.04-42.52,85.04,42.52-141.73,70.87L9.74,81.99,151.47,11.12Zm113.38,190.77v-28.35l-113.38,56.69-113.38-56.69v28.35l-28.35-14.17v-56.7s141.73,70.87,141.73,70.87l141.73-70.87v56.69s-28.35,14.17-28.35,14.17Zm28.35-81.21l-141.73,70.87L9.74,120.68v-28.35l141.73,70.87,141.73-70.87v28.35Z"/></g></svg>